Jump_normalized_Motion_pl14
version=1
nRows=23
nColumns=43
inDegrees=yes
endheader
time		pelvis_tilt		pelvis_list		pelvis_rotation		pelvis_tx		pelvis_ty		pelvis_tz		hip_flexion_r		hip_adduction_r		hip_rotation_r		knee_angle_r		ankle_angle_r		subtalar_angle_r		mtp_angle_r		hip_flexion_l		hip_adduction_l		hip_rotation_l		knee_angle_l		ankle_angle_l		subtalar_angle_l		mtp_angle_l		lumbar_extension		lumbar_bending		lumbar_rotation		neck_flexion		neck_lateral_bending		neck_rotation		arm_flex_r		arm_add_r		arm_rot_r		elbow_flex_r		pro_sup_r		wrist_flex_r		wrist_dev_r		hand_finger_flex_r		arm_flex_l		arm_add_l		arm_rot_l		elbow_flex_l		pro_sup_l		wrist_flex_l		wrist_dev_l		hand_finger_flex_l		
0.188333		3.536437		-21.227683		85.521168		0.048399		1.747088		1.861048		90.395488		5.615217		-5.780083		-134.093197		23.360148		-5.881106		10.733906		91.126094		-10.303761		1.645015		-138.674251		21.735443		-3.960799		11.657554		-49.130665		-0.843662		4.502881		41.083768		-2.804181		3.995877		79.801368		-15.316316		10.469602		77.118215		95.907980		-8.013023		2.869051		27.821755		75.012846		-28.567425		9.830136		85.985600		86.005781		-7.806542		0.217630		32.860074		
0.192071		3.567585		-21.608119		85.558075		0.048704		1.749289		1.857888		90.128369		5.705456		-5.759288		-133.710574		23.377936		-5.972173		10.777736		90.905840		-10.394247		1.673718		-138.308648		21.713264		-3.825467		11.712532		-48.606900		-0.808373		4.501152		40.894280		-2.784474		3.976852		80.749546		-15.171823		10.564420		77.429372		95.887905		-7.982098		2.843267		27.838600		76.293248		-28.494300		10.150225		86.212261		85.916367		-7.824208		0.140358		32.752704		
0.195808		3.661773		-21.667035		85.649391		0.049194		1.752329		1.854594		89.405074		5.810360		-5.823723		-133.234218		23.529764		-6.203785		10.951365		90.307957		-10.487314		1.829103		-137.913806		21.721530		-3.349292		11.948563		-48.467742		-0.835061		4.624507		40.835014		-2.504568		3.801711		81.857498		-15.335507		10.758436		77.705505		95.710149		-7.990214		2.903354		27.933694		78.215925		-28.587863		11.449990		86.046562		85.446598		-8.074200		-0.069214		32.187705		
0.199545		3.722157		-21.986590		85.723518		0.049122		1.754768		1.851379		88.970276		5.827347		-5.793611		-132.787515		23.795416		-6.217674		11.037242		90.015112		-10.481986		1.858542		-137.535646		21.689352		-3.217630		12.037238		-48.013297		-0.701897		4.646189		40.687076		-2.642003		3.857652		83.022871		-15.329000		11.139223		77.844286		95.763897		-7.911672		2.923802		27.970868		79.728451		-28.644751		12.128704		86.061289		85.453410		-8.020978		-0.023724		31.981438		
0.203283		3.792178		-22.074097		85.846205		0.048964		1.757823		1.847951		88.222515		5.818661		-5.722554		-132.303469		24.104167		-6.110218		11.182222		89.432338		-10.461343		1.878662		-137.126724		21.657689		-3.008704		12.231346		-47.844701		-0.578735		4.662424		40.613665		-2.651133		3.858394		84.269871		-15.377779		11.490340		77.932217		95.784109		-7.953459		2.939832		28.009671		81.434123		-28.625940		12.977007		85.937742		85.274232		-8.070161		-0.041483		31.492686		
0.207020		3.821552		-22.323483		85.894750		0.048652		1.760525		1.844595		87.715344		5.831080		-5.607590		-131.849995		24.292996		-6.029165		11.270121		89.028304		-10.453726		1.828486		-136.743726		21.628545		-2.891330		12.363484		-47.479721		-0.460306		4.666554		40.550099		-2.724782		3.897369		85.484772		-15.271995		11.753247		77.945704		95.839217		-7.978820		2.955688		28.024084		82.912825		-28.464035		13.444281		85.840261		85.178548		-8.062589		-0.025933		31.177982		
0.210758		3.829030		-22.478275		85.942641		0.048328		1.763592		1.841007		87.079636		5.812300		-5.492343		-131.364811		24.439248		-5.902700		11.361075		88.453814		-10.427331		1.765319		-136.279843		21.565536		-2.761013		12.505260		-47.226981		-0.369467		4.650924		40.436245		-2.769455		3.935940		86.708958		-15.293199		12.147852		78.025777		95.946667		-7.958626		2.976255		28.061217		84.456207		-28.413033		14.070452		85.762609		85.094482		-7.957269		0.007710		30.898600		
0.214495		3.846315		-22.786998		85.970341		0.048045		1.766279		1.837575		86.700153		5.831041		-5.405145		-130.922550		24.451322		-5.860874		11.403124		88.095143		-10.446395		1.702748		-135.853741		21.510289		-2.663050		12.579292		-46.787294		-0.268054		4.655061		40.372429		-2.842997		3.991005		87.924261		-15.195169		12.450043		77.981493		96.038105		-7.913947		3.021905		28.074397		85.869769		-28.243585		14.463986		85.669801		85.075593		-7.876094		0.049982		30.783855		
0.218232		3.854382		-22.887521		85.997339		0.047885		1.769469		1.833755		86.088712		5.811896		-5.352263		-130.468022		24.348194		-5.851320		11.492694		87.432195		-10.483836		1.628092		-135.392009		21.430219		-2.492856		12.742494		-46.593083		-0.228151		4.644817		40.283898		-2.811418		4.002138		89.137174		-15.281302		12.874924		78.089655		96.103781		-7.883034		3.063650		28.130567		87.422597		-28.285824		15.152960		85.619989		84.903102		-7.745746		0.011615		30.639077		
0.221970		3.890209		-23.237403		86.006509		0.047731		1.772129		1.830187		85.823710		5.824008		-5.350073		-130.031194		24.185270		-5.885763		11.526467		87.096382		-10.550806		1.585279		-134.946001		21.378461		-2.384402		12.820954		-46.091625		-0.145331		4.680595		40.217626		-2.857119		4.034932		90.308684		-15.191534		13.181450		78.037261		96.166134		-7.833403		3.112081		28.143332		88.768071		-28.154888		15.548197		85.559891		84.872067		-7.686801		0.015767		30.603205		
0.225707		3.953096		-23.422890		86.026998		0.047725		1.775156		1.826254		85.350335		5.837736		-5.412331		-129.572278		23.890549		-6.080340		11.620139		86.539447		-10.656356		1.574135		-134.496548		21.316936		-2.186049		12.988459		-45.787328		-0.096223		4.722015		40.120561		-2.811472		4.022897		91.464022		-15.281141		13.598407		78.141050		96.191504		-7.800216		3.125325		28.171956		90.258794		-28.236275		16.264143		85.544009		84.723269		-7.645346		-0.080944		30.592220		
0.229444		4.012073		-23.772666		86.044754		0.047609		1.777831		1.822479		85.073570		5.858286		-5.444135		-129.126759		23.699864		-6.173584		11.671626		86.186614		-10.746029		1.548829		-134.046734		21.296355		-2.063569		13.076197		-45.274566		-0.006640		4.779042		40.036054		-2.859932		4.034032		92.605974		-15.221279		13.900667		78.075477		96.255995		-7.735334		3.148117		28.166299		91.585076		-28.124438		16.712739		85.475034		84.724959		-7.641552		-0.080648		30.588526		
0.233182		4.069177		-24.051659		86.063368		0.047487		1.780704		1.818470		84.658952		5.876719		-5.471327		-128.644519		23.515072		-6.305575		11.745641		85.732020		-10.831825		1.525430		-133.585867		21.287849		-1.907162		13.181027		-44.844491		0.070420		4.828649		39.923682		-2.886866		4.027967		93.732875		-15.233643		14.242597		78.063057		96.329653		-7.621898		3.143390		28.162206		92.964893		-28.089979		17.297177		85.416155		84.749358		-7.650325		-0.081107		30.589666		
0.236919		4.103635		-24.315352		86.079025		0.047310		1.783668		1.814291		84.169605		5.886008		-5.452288		-128.131379		23.418870		-6.408215		11.832594		85.225633		-10.891977		1.477228		-133.106236		21.296561		-1.750920		13.280136		-44.418243		0.139885		4.860717		39.802130		-2.924022		4.031472		94.830085		-15.226165		14.542612		78.015063		96.403943		-7.467983		3.141405		28.161972		94.297075		-28.026757		17.859664		85.328426		84.801471		-7.689029		-0.060673		30.579400		
0.240657		4.118537		-24.566335		86.101413		0.047034		1.786673		1.809945		83.610684		5.883203		-5.390248		-127.596129		23.408683		-6.459002		11.929104		84.678514		-10.942479		1.393562		-132.609977		21.305901		-1.602479		13.372388		-44.000620		0.212424		4.853075		39.649145		-2.959432		4.044361		95.879633		-15.206524		14.792176		77.992307		96.471334		-7.286947		3.143084		28.177320		95.568155		-27.957191		18.361608		85.273758		84.863589		-7.748285		-0.043491		30.562122		
0.244394		4.058887		-24.499845		86.136147		0.046723		1.790377		1.805145		82.602467		5.821834		-5.202653		-127.031755		23.563448		-6.343874		12.182894		83.687387		-10.946385		1.193462		-132.056330		21.356876		-1.384544		13.585087		-43.961782		0.203799		4.733715		39.627665		-2.862010		4.042374		96.990928		-15.195627		14.996526		77.958502		96.494545		-6.991150		3.151289		28.261491		97.037187		-28.004012		19.147529		85.175659		84.844490		-8.047052		-0.151293		30.514856		
0.248131		4.043507		-24.785771		86.161006		0.046384		1.793269		1.800521		81.977627		5.793472		-5.085600		-126.458970		23.708168		-6.295097		12.298283		83.147443		-10.969657		1.057748		-131.535692		21.348289		-1.282072		13.678327		-43.458794		0.282486		4.691667		39.448426		-2.905069		4.089748		97.926465		-15.105689		15.189306		77.920664		96.543283		-6.839529		3.185235		28.300317		98.125335		-27.889794		19.521943		85.129303		84.868826		-8.155163		-0.170155		30.498177		
0.251869		4.038264		-25.154000		86.194797		0.045987		1.795837		1.795973		81.439693		5.756252		-4.976343		-125.894632		23.945877		-6.250456		12.379395		82.737407		-10.972985		0.932241		-131.045237		21.300137		-1.214379		13.732974		-42.828813		0.399168		4.672074		39.201823		-3.020245		4.170651		98.905949		-15.058854		15.523869		77.811233		96.632733		-6.693608		3.270406		28.343594		99.189959		-27.781507		19.914234		85.024215		84.958769		-8.160867		-0.126222		30.501691		
0.255606		3.925827		-24.855013		86.284634		0.045431		1.799888		1.790644		80.041777		5.539450		-4.691382		-125.297626		24.508829		-5.603929		12.699306		81.449264		-10.850350		0.639849		-130.442276		21.219044		-1.125133		14.025101		-43.035399		0.404473		4.438504		39.265879		-2.906675		4.226763		100.125113		-15.100380		15.976911		77.723347		96.454151		-6.687580		3.368273		28.494563		100.741275		-27.969680		20.937246		84.864663		84.860541		-8.549645		-0.451849		30.508595		
0.259343		3.913257		-25.236920		86.273741		0.044978		1.802357		1.785965		79.539714		5.486051		-4.594740		-124.734425		24.767628		-5.601474		12.761549		81.036975		-10.864595		0.491613		-129.930971		21.127253		-1.062372		14.080932		-42.366026		0.507936		4.459068		38.978781		-3.030805		4.308562		101.064242		-15.031700		16.315324		77.577838		96.471971		-6.650286		3.439833		28.500485		101.742743		-27.828640		21.264945		84.718469		84.922717		-8.548189		-0.418306		30.525681		
0.263081		3.906230		-25.567732		86.275025		0.044578		1.805136		1.780939		78.945619		5.423739		-4.505516		-124.112222		24.899431		-5.530032		12.806212		80.538413		-10.896946		0.343059		-129.394896		21.008074		-0.996928		14.128829		-41.765607		0.606239		4.465274		38.743547		-3.093556		4.350100		101.885381		-14.935513		16.552108		77.554898		96.438417		-6.662825		3.462095		28.480838		102.641499		-27.714185		21.539699		84.685497		84.973596		-8.541442		-0.436052		30.540927		
0.266818		3.864815		-25.750211		86.257716		0.044143		1.808197		1.775824		78.219080		5.334948		-4.380554		-123.509123		25.074165		-5.398723		12.874895		79.862923		-10.908431		0.165762		-128.836233		20.814151		-0.914483		14.200630		-41.348687		0.660793		4.456627		38.543427		-3.155049		4.390417		102.830746		-14.875340		16.879316		77.430994		96.350232		-6.720740		3.498198		28.423718		103.717931		-27.658002		22.006252		84.554026		85.060953		-8.523026		-0.472919		30.565881		
0.270556		3.790877		-25.904410		86.203472		0.043745		1.811587		1.770386		77.441608		5.259169		-4.220773		-122.855679		25.102148		-5.282928		12.936105		79.083086		-10.951506		-0.075727		-128.208246		20.636350		-0.885064		14.287033		-40.974523		0.663473		4.422667		38.421158		-3.122443		4.413332		103.587117		-14.711037		16.967497		77.410434		96.205574		-6.824024		3.463320		28.323294		104.623099		-27.574222		22.294815		84.542868		85.086922		-8.574442		-0.619252		30.571054		
